<?xml version="1.0" encoding="utf-8"?>
<!-- Generator: Adobe Illustrator 16.0.3, SVG Export Plug-In . SVG Version: 6.00 Build 0)  -->
<!DOCTYPE svg PUBLIC "-//W3C//DTD SVG 1.1//EN" "http://www.w3.org/Graphics/SVG/1.1/DTD/svg11.dtd">
<svg version="1.1" id="圖層_1" xmlns="http://www.w3.org/2000/svg" xmlns:xlink="http://www.w3.org/1999/xlink" x="0px" y="0px"
	 width="209px" height="171px" viewBox="158.139 288.445 209 171" enable-background="new 158.139 288.445 209 171"
	 xml:space="preserve">
<g id="logo_googleg_48dp" transform="translate(15.000000, 15.000000)">
	<path id="Shape" fill="#4779BD" d="M328.018,357.166c0-4.827-0.429-9.477-1.238-13.923H262.7v26.33h36.614
		c-1.567,8.515-6.369,15.717-13.57,20.544v17.08h21.984C320.614,395.318,328.018,377.885,328.018,357.166L328.018,357.166z"/>
	<path id="Shape_1_" fill="#38A052" d="M262.699,423.669c18.37,0,33.785-6.089,45.027-16.475l-21.983-17.08
		c-6.089,4.093-13.898,6.494-23.044,6.494c-17.714,0-32.723-11.979-38.08-28.049h-22.742v17.639
		C213.096,408.408,236.116,423.669,262.699,423.669L262.699,423.669z"/>
	<path id="Shape_2_" fill="#F0B61A" d="M224.62,368.535c-1.364-4.094-2.122-8.439-2.122-12.937c0-4.498,0.782-8.845,2.122-12.938
		v-17.613h-22.742c-4.598,9.198-7.227,19.583-7.227,30.575s2.628,21.377,7.227,30.551L224.62,368.535L224.62,368.535z"/>
	<path id="Shape_3_" fill="#DD4335" d="M262.699,314.636c9.981,0,18.952,3.438,26.001,10.184l19.508-19.507
		c-11.774-10.991-27.188-17.713-45.534-17.713c-26.608,0-49.602,15.237-60.796,37.499l22.742,17.638
		C229.976,326.589,244.985,314.636,262.699,314.636L262.699,314.636z"/>
	<path id="Shape_4_" fill="none" d="M194.651,287.576h136.096v136.094H194.651V287.576z"/>
</g>
</svg>
